<mxfile host="app.diagrams.net" agent="Mozilla/5.0 (Windows NT 10.0; Win64; x64) AppleWebKit/537.36 (KHTML, like Gecko) Chrome/141.0.0.0 Safari/537.36 Edg/141.0.0.0" version="28.2.8">
  <diagram name="第 1 页" id="eZXttUra9scu8N5AbwKa">
    <mxGraphModel dx="1418" dy="790" grid="1" gridSize="10" guides="1" tooltips="1" connect="1" arrows="1" fold="1" page="1" pageScale="1" pageWidth="827" pageHeight="1169" math="0" shadow="0">
      <root>
        <mxCell id="0" />
        <mxCell id="1" parent="0" />
        <mxCell id="HQnrOW8NdBMIqrhICTfX-8" value="" style="swimlane;startSize=0;strokeWidth=2;" parent="1" vertex="1">
          <mxGeometry x="110" y="140" width="1210" height="100" as="geometry" />
        </mxCell>
        <mxCell id="HQnrOW8NdBMIqrhICTfX-9" value="&lt;font style=&quot;font-size: 18px;&quot;&gt;应用层&lt;/font&gt;" style="rounded=0;whiteSpace=wrap;html=1;" parent="HQnrOW8NdBMIqrhICTfX-8" vertex="1">
          <mxGeometry x="-30" width="30" height="100" as="geometry" />
        </mxCell>
        <mxCell id="HQnrOW8NdBMIqrhICTfX-12" value="&lt;font style=&quot;font-size: 18px;&quot;&gt;回射处理，数据报文封装&lt;/font&gt;" style="rounded=0;whiteSpace=wrap;html=1;fillColor=#fff2cc;strokeColor=#d6b656;" parent="HQnrOW8NdBMIqrhICTfX-8" vertex="1">
          <mxGeometry x="475" y="20" width="260" height="60" as="geometry" />
        </mxCell>
        <mxCell id="HQnrOW8NdBMIqrhICTfX-14" value="" style="swimlane;startSize=0;strokeWidth=2;" parent="1" vertex="1">
          <mxGeometry x="80" y="330" width="1240" height="100" as="geometry" />
        </mxCell>
        <mxCell id="HQnrOW8NdBMIqrhICTfX-15" value="&lt;span style=&quot;font-size: 18px;&quot;&gt;I/O复用&lt;/span&gt;" style="rounded=0;whiteSpace=wrap;html=1;" parent="HQnrOW8NdBMIqrhICTfX-14" vertex="1">
          <mxGeometry width="30" height="100" as="geometry" />
        </mxCell>
        <mxCell id="HQnrOW8NdBMIqrhICTfX-23" value="&lt;span style=&quot;font-size: 18px;&quot;&gt;select/poll/epoll（获取socket描述符）&lt;/span&gt;" style="rounded=0;whiteSpace=wrap;html=1;fillColor=#fff2cc;strokeColor=#d6b656;" parent="HQnrOW8NdBMIqrhICTfX-14" vertex="1">
          <mxGeometry x="290" y="20" width="190" height="60" as="geometry" />
        </mxCell>
        <mxCell id="HQnrOW8NdBMIqrhICTfX-26" value="" style="swimlane;startSize=0;fillStyle=auto;shadow=0;strokeWidth=2;" parent="1" vertex="1">
          <mxGeometry x="80" y="500" width="1240" height="100" as="geometry" />
        </mxCell>
        <mxCell id="HQnrOW8NdBMIqrhICTfX-27" value="&lt;span style=&quot;font-size: 18px;&quot;&gt;socket层&lt;/span&gt;" style="rounded=0;whiteSpace=wrap;html=1;" parent="HQnrOW8NdBMIqrhICTfX-26" vertex="1">
          <mxGeometry width="60" height="100" as="geometry" />
        </mxCell>
        <mxCell id="HQnrOW8NdBMIqrhICTfX-28" value="&lt;span style=&quot;font-size: 18px;&quot;&gt;socket管理&lt;/span&gt;" style="rounded=0;whiteSpace=wrap;html=1;fillColor=#fff2cc;strokeColor=#d6b656;" parent="HQnrOW8NdBMIqrhICTfX-26" vertex="1">
          <mxGeometry x="505" y="20" width="260" height="60" as="geometry" />
        </mxCell>
        <mxCell id="HQnrOW8NdBMIqrhICTfX-31" value="" style="endArrow=classic;html=1;rounded=0;fontFamily=Helvetica;fontSize=12;fontColor=default;entryX=0.5;entryY=1;entryDx=0;entryDy=0;exitX=0.5;exitY=0;exitDx=0;exitDy=0;" parent="1" source="HQnrOW8NdBMIqrhICTfX-28" target="HQnrOW8NdBMIqrhICTfX-23" edge="1">
          <mxGeometry width="50" height="50" relative="1" as="geometry">
            <mxPoint x="290" y="460" as="sourcePoint" />
            <mxPoint x="440" y="510" as="targetPoint" />
          </mxGeometry>
        </mxCell>
        <mxCell id="HQnrOW8NdBMIqrhICTfX-33" value="" style="endArrow=classic;html=1;rounded=0;fontFamily=Helvetica;fontSize=12;fontColor=default;exitX=0.5;exitY=1;exitDx=0;exitDy=0;entryX=0.5;entryY=0;entryDx=0;entryDy=0;" parent="1" source="HQnrOW8NdBMIqrhICTfX-12" target="HQnrOW8NdBMIqrhICTfX-28" edge="1">
          <mxGeometry width="50" height="50" relative="1" as="geometry">
            <mxPoint x="792" y="410" as="sourcePoint" />
            <mxPoint x="905" y="520" as="targetPoint" />
          </mxGeometry>
        </mxCell>
        <mxCell id="GAfQ2E6NtkMOHhMgHQJN-3" value="&lt;font style=&quot;font-size: 18px;&quot;&gt;写入&lt;/font&gt;" style="edgeLabel;html=1;align=center;verticalAlign=middle;resizable=0;points=[];" vertex="1" connectable="0" parent="HQnrOW8NdBMIqrhICTfX-33">
          <mxGeometry x="-0.1533" y="2" relative="1" as="geometry">
            <mxPoint as="offset" />
          </mxGeometry>
        </mxCell>
        <mxCell id="HQnrOW8NdBMIqrhICTfX-36" value="" style="swimlane;startSize=0;strokeWidth=2;" parent="1" vertex="1">
          <mxGeometry x="110" y="680" width="1210" height="100" as="geometry" />
        </mxCell>
        <mxCell id="HQnrOW8NdBMIqrhICTfX-37" value="&lt;span style=&quot;font-size: 18px;&quot;&gt;网络协议栈&lt;/span&gt;" style="rounded=0;whiteSpace=wrap;html=1;" parent="HQnrOW8NdBMIqrhICTfX-36" vertex="1">
          <mxGeometry x="-30" width="30" height="100" as="geometry" />
        </mxCell>
        <mxCell id="HQnrOW8NdBMIqrhICTfX-38" value="&lt;span style=&quot;font-size: 18px;&quot;&gt;TCP/IP数据传输&lt;/span&gt;" style="rounded=0;whiteSpace=wrap;html=1;fillColor=#fff2cc;strokeColor=#d6b656;" parent="HQnrOW8NdBMIqrhICTfX-36" vertex="1">
          <mxGeometry x="525" y="20" width="160" height="60" as="geometry" />
        </mxCell>
        <mxCell id="GAfQ2E6NtkMOHhMgHQJN-1" value="" style="endArrow=classic;html=1;rounded=0;fontFamily=Helvetica;fontSize=12;fontColor=default;exitX=0.5;exitY=0;exitDx=0;exitDy=0;entryX=0.25;entryY=1;entryDx=0;entryDy=0;" edge="1" parent="1" source="HQnrOW8NdBMIqrhICTfX-23" target="HQnrOW8NdBMIqrhICTfX-12">
          <mxGeometry width="50" height="50" relative="1" as="geometry">
            <mxPoint x="410" y="260" as="sourcePoint" />
            <mxPoint x="410" y="370" as="targetPoint" />
          </mxGeometry>
        </mxCell>
        <mxCell id="GAfQ2E6NtkMOHhMgHQJN-2" value="&lt;font style=&quot;font-size: 18px;&quot;&gt;读取&lt;/font&gt;" style="edgeLabel;html=1;align=center;verticalAlign=middle;resizable=0;points=[];" vertex="1" connectable="0" parent="GAfQ2E6NtkMOHhMgHQJN-1">
          <mxGeometry x="-0.1878" y="-3" relative="1" as="geometry">
            <mxPoint as="offset" />
          </mxGeometry>
        </mxCell>
        <mxCell id="GAfQ2E6NtkMOHhMgHQJN-4" value="" style="endArrow=classic;startArrow=classic;html=1;rounded=0;exitX=0.5;exitY=0;exitDx=0;exitDy=0;entryX=0.5;entryY=1;entryDx=0;entryDy=0;" edge="1" parent="1" source="HQnrOW8NdBMIqrhICTfX-38" target="HQnrOW8NdBMIqrhICTfX-28">
          <mxGeometry width="50" height="50" relative="1" as="geometry">
            <mxPoint x="700" y="520" as="sourcePoint" />
            <mxPoint x="750" y="470" as="targetPoint" />
          </mxGeometry>
        </mxCell>
      </root>
    </mxGraphModel>
  </diagram>
</mxfile>
